<?xml version="1.0" encoding="utf-8"?>
<!-- Generator: Adobe Illustrator 23.0.4, SVG Export Plug-In . SVG Version: 6.00 Build 0)  -->
<svg version="1.1" id="Layer_1" xmlns="http://www.w3.org/2000/svg" xmlns:xlink="http://www.w3.org/1999/xlink" x="0px" y="0px"
	 viewBox="0 0 36 35" style="enable-background:new 0 0 36 35;" xml:space="preserve">
<style type="text/css">
	.st0{clip-path:url(#SVGID_2_);}
	.st1{fill:url(#path10283_1_);}
	.st2{fill:#FF5F00;}
	.st3{fill:#EB001B;}
	.st4{fill:#F79E1B;}
</style>
<g>
	<g>
		<defs>
			<path id="SVGID_1_" d="M18.6,6c0,1.6,1.4,2.4,2.4,2.9c1.1,0.5,1.5,0.9,1.4,1.3c0,0.7-0.9,1-1.7,1.1c-1.4,0-2.2-0.4-2.9-0.7
				L17.3,13c0.7,0.3,1.9,0.6,3.1,0.6c2.9,0,4.8-1.4,4.9-3.7c0-2.8-3.9-3-3.9-4.3c0-0.4,0.4-0.8,1.2-0.9c0.4-0.1,1.5-0.1,2.8,0.5
				L25.9,3c-0.7-0.2-1.5-0.5-2.6-0.5C20.5,2.5,18.6,3.9,18.6,6 M30.6,2.7c-0.5,0-1,0.3-1.2,0.8l-4.2,10h2.9l0.6-1.6h3.6l0.3,1.6h2.6
				L33,2.7H30.6 M31,5.6l0.8,4.1h-2.3L31,5.6 M15,2.7l-2.3,10.8h2.8l2.3-10.8H15 M10.9,2.7L8,10L6.8,3.8C6.7,3.1,6.1,2.7,5.5,2.7
				H0.8L0.7,3c1,0.2,2.1,0.6,2.8,0.9c0.4,0.2,0.5,0.4,0.6,1l2.2,8.6h3l4.5-10.8H10.9"/>
		</defs>
		<clipPath id="SVGID_2_">
			<use xlink:href="#SVGID_1_"  style="overflow:visible;"/>
		</clipPath>
		<g id="g10269" class="st0">
			<g id="g10275" transform="translate(351.611,96.896)">
				
					<linearGradient id="path10283_1_" gradientUnits="userSpaceOnUse" x1="-1260.6517" y1="1.7882" x2="-1260.5824" y2="1.7882" gradientTransform="matrix(419.708 -154.5691 154.5691 419.708 528481.5 -195691.9688)">
					<stop  offset="0" style="stop-color:#222357"/>
					<stop  offset="1" style="stop-color:#254AA5"/>
				</linearGradient>
				<path id="path10283" class="st1" d="M-354.5-93.1l34-12.5l7.7,21l-34,12.5"/>
			</g>
		</g>
	</g>
</g>
<g id="_Group_3">
	<rect x="14.4" y="18.2" class="st2" width="7.2" height="13"/>
	<path id="_Path_3" class="st3" d="M14.8,24.8c0-2.5,1.2-4.9,3.2-6.5c-3.6-2.8-8.7-2.2-11.6,1.4c-2.8,3.6-2.2,8.7,1.4,11.6
		c3,2.4,7.2,2.4,10.2,0C16,29.7,14.8,27.3,14.8,24.8z"/>
	<path class="st4" d="M31.3,24.8c0,4.5-3.7,8.2-8.2,8.2c-1.9,0-3.7-0.6-5.1-1.7c3.6-2.8,4.2-8,1.4-11.5c-0.4-0.5-0.9-1-1.4-1.4
		c3.6-2.8,8.7-2.2,11.5,1.4C30.7,21.1,31.3,22.9,31.3,24.8z M30.5,29.8v-0.2h0.1v-0.1h-0.2v0.1h0.1V29.8L30.5,29.8z M31.1,29.8v-0.3
		H31l-0.1,0.2l-0.1-0.2h-0.1v0.3h0.1v-0.2l0.1,0.2H31l0.1-0.2L31.1,29.8L31.1,29.8z"/>
</g>
</svg>
