<?xml version="1.0" encoding="utf-8"?>
<!-- Generator: Adobe Illustrator 23.0.0, SVG Export Plug-In . SVG Version: 6.00 Build 0)  -->
<svg version="1.1" id="Layer_1" xmlns="http://www.w3.org/2000/svg" xmlns:xlink="http://www.w3.org/1999/xlink" x="0px" y="0px"
	 viewBox="0 0 36 35" style="enable-background:new 0 0 36 35;" xml:space="preserve">
<style type="text/css">
	.st0{fill:#F7931A;}
	.st1{fill:#FFFFFF;}
</style>
<title>Layer_1</title>
<desc>Created with Sketch.</desc>
<path class="st0" d="M34.1,21.5c-2.2,8.9-11.3,14.4-20.2,12.2C4.9,31.4-0.5,22.3,1.7,13.4C3.9,4.4,13-1,22,1.2
	C30.9,3.4,36.3,12.5,34.1,21.5L34.1,21.5z"/>
<path class="st1" d="M25.3,15c0.3-2.2-1.4-3.4-3.7-4.2l0.8-3l-1.8-0.5l-0.7,2.9c-0.5-0.1-1-0.2-1.5-0.3l0.7-3l-1.8-0.5l-0.8,3
	c-0.4-0.1-0.8-0.2-1.2-0.3l0,0l-2.5-0.6l-0.5,2c0,0,1.4,0.3,1.3,0.3c0.7,0.2,0.9,0.7,0.9,1.1l-0.9,3.4c0.1,0,0.1,0,0.2,0.1
	c-0.1,0-0.1,0-0.2,0l-1.2,4.8c-0.1,0.2-0.3,0.6-0.8,0.4c0,0-1.3-0.3-1.3-0.3l-0.9,2.1l2.4,0.6c0.4,0.1,0.9,0.2,1.3,0.3l-0.8,3
	l1.8,0.5l0.8-3c0.5,0.1,1,0.3,1.5,0.4l-0.7,3l1.8,0.5l0.8-3c3.1,0.6,5.5,0.4,6.5-2.5c0.8-2.3,0-3.6-1.7-4.4
	C24.1,17.4,25,16.7,25.3,15L25.3,15z M21.1,20.9c-0.6,2.3-4.4,1-5.6,0.7l1-4C17.7,17.9,21.7,18.5,21.1,20.9L21.1,20.9z M21.7,15
	c-0.5,2.1-3.7,1-4.7,0.8l0.9-3.7C18.9,12.4,22.2,12.8,21.7,15z"/>
</svg>
